<svg width="894" height="769" viewBox="0 0 894 769" fill="none" xmlns="http://www.w3.org/2000/svg">
<path d="M797.766 403.416C786.295 363.232 745.389 339.627 703.613 331.053C594.711 308.702 507.259 362.087 404.306 379.689C355.24 388.078 305.203 383.116 256.216 376.902C213.56 371.491 166.512 360.334 125.135 376.71C100.125 386.608 78.9134 405.608 70.2047 429.354C59.9768 457.24 68.9567 485.216 91.1869 505.727C135.749 546.844 203.496 557.458 263.656 562.674C301.603 565.963 340.946 563.382 379.249 565.588C419.137 567.886 458.973 571.07 498.928 572.323C582.935 574.957 686.095 572.338 752.355 518.827C786.711 491.083 809.82 445.643 797.766 403.416Z" fill="#688E8A"/>
<path d="M629.067 184.047C621.143 180.771 612.378 179.334 604.15 179.47C567.377 180.079 531.043 189.723 494.265 189.721C448.114 189.718 403.166 174.582 357.533 166.855C311.07 158.987 252.52 158.367 214.578 194.866C180.874 227.288 188.614 281.404 223.932 307.978C243.203 322.478 266.618 328.405 289.702 331.243C398.427 344.609 508.313 318.315 609.312 274.045C628.279 265.731 655.623 250.401 655.714 223.501C655.784 202.75 643.896 190.178 629.067 184.047Z" fill="#88BCB5"/>
<path d="M508.438 35.2798C498.266 15.3778 474.391 -0.179186 446.216 0.00155903C420.032 0.167959 397.762 14.6706 387.144 32.7924C368.51 64.5964 379.959 109.418 422.933 125.266C429.169 127.566 435.922 128.523 442.353 128.045C453.573 129.27 465.18 127.999 476.037 123.614C514.031 108.269 523.192 64.1459 508.438 35.2798Z" fill="#88BCCF"/>
<path d="M19.76 737C17.8533 737 16.25 736.35 14.95 735.05C13.65 733.75 13 732.147 13 730.24V642.23C13 640.237 13.65 638.633 14.95 637.42C16.25 636.12 17.8533 635.47 19.76 635.47H45.76C52.26 635.47 58.0233 636.9 63.05 639.76C68.0767 642.62 71.9767 646.607 74.75 651.72C77.61 656.747 79.04 662.553 79.04 669.14C79.04 675.467 77.61 681.1 74.75 686.04C71.9767 690.98 68.0767 694.837 63.05 697.61C58.0233 700.383 52.26 701.77 45.76 701.77H26.52V730.24C26.52 732.147 25.87 733.75 24.57 735.05C23.3567 736.35 21.7533 737 19.76 737ZM26.52 689.29H45.76C49.7467 689.29 53.2567 688.423 56.29 686.69C59.3233 684.957 61.7067 682.573 63.44 679.54C65.1733 676.507 66.04 673.04 66.04 669.14C66.04 664.98 65.1733 661.34 63.44 658.22C61.7067 655.013 59.3233 652.5 56.29 650.68C53.2567 648.86 49.7467 647.95 45.76 647.95H26.52V689.29ZM99.3261 711.13C97.4194 711.13 95.8161 710.523 94.5161 709.31C93.3028 708.01 92.6961 706.407 92.6961 704.5V642.1C92.6961 640.107 93.3028 638.503 94.5161 637.29C95.8161 636.077 97.4194 635.47 99.3261 635.47C101.319 635.47 102.923 636.077 104.136 637.29C105.349 638.503 105.956 640.107 105.956 642.1V704.5C105.956 706.407 105.349 708.01 104.136 709.31C102.923 710.523 101.319 711.13 99.3261 711.13ZM152.756 737.13C150.849 737.13 149.246 736.523 147.946 735.31C146.733 734.01 146.126 732.407 146.126 730.5V698.52C146.126 693.58 145.216 689.55 143.396 686.43C141.576 683.31 139.106 681.013 135.986 679.54C132.953 677.98 129.443 677.2 125.456 677.2C121.816 677.2 118.523 677.937 115.576 679.41C112.629 680.883 110.289 682.877 108.556 685.39C106.823 687.817 105.956 690.633 105.956 693.84H97.7661C97.7661 688.38 99.0661 683.527 101.666 679.28C104.353 674.947 107.993 671.523 112.586 669.01C117.179 666.497 122.336 665.24 128.056 665.24C134.036 665.24 139.366 666.54 144.046 669.14C148.813 671.653 152.539 675.38 155.226 680.32C157.999 685.26 159.386 691.327 159.386 698.52V730.5C159.386 732.407 158.736 734.01 157.436 735.31C156.223 736.523 154.663 737.13 152.756 737.13ZM99.3261 737.13C97.4194 737.13 95.8161 736.523 94.5161 735.31C93.3028 734.01 92.6961 732.407 92.6961 730.5V672.52C92.6961 670.527 93.3028 668.923 94.5161 667.71C95.8161 666.497 97.4194 665.89 99.3261 665.89C101.319 665.89 102.923 666.497 104.136 667.71C105.349 668.923 105.956 670.527 105.956 672.52V730.5C105.956 732.407 105.349 734.01 104.136 735.31C102.923 736.523 101.319 737.13 99.3261 737.13ZM194.176 768.2C193.31 768.2 192.27 767.94 191.056 767.42C187.243 765.687 186.203 762.957 187.936 759.23L227.586 669.66C229.32 666.02 232.05 664.98 235.776 666.54C239.676 668.187 240.76 670.917 239.026 674.73L199.246 764.17C198.206 766.857 196.516 768.2 194.176 768.2ZM209.516 734.14C207.87 734.833 206.31 734.92 204.836 734.4C203.45 733.793 202.323 732.667 201.456 731.02L171.686 674.47C170.82 672.823 170.69 671.263 171.296 669.79C171.99 668.23 173.16 667.103 174.806 666.41C176.453 665.717 178.013 665.673 179.486 666.28C180.96 666.8 182.086 667.883 182.866 669.53L211.336 726.08C212.203 727.727 212.506 729.33 212.246 730.89C212.073 732.363 211.163 733.447 209.516 734.14ZM277.384 737.52C271.318 737.52 265.684 736.61 260.484 734.79C255.371 732.883 251.384 730.5 248.524 727.64C247.224 726.253 246.661 724.693 246.834 722.96C247.094 721.14 247.961 719.667 249.434 718.54C251.168 717.153 252.858 716.59 254.504 716.85C256.238 717.023 257.711 717.76 258.924 719.06C260.398 720.707 262.738 722.267 265.944 723.74C269.238 725.127 272.878 725.82 276.864 725.82C281.891 725.82 285.704 724.997 288.304 723.35C290.991 721.703 292.378 719.58 292.464 716.98C292.551 714.38 291.294 712.127 288.694 710.22C286.181 708.313 281.544 706.753 274.784 705.54C266.031 703.807 259.661 701.207 255.674 697.74C251.774 694.273 249.824 690.027 249.824 685C249.824 680.58 251.124 676.94 253.724 674.08C256.324 671.133 259.661 668.967 263.734 667.58C267.808 666.107 272.054 665.37 276.474 665.37C282.194 665.37 287.264 666.28 291.684 668.1C296.104 669.92 299.614 672.433 302.214 675.64C303.428 677.027 303.991 678.5 303.904 680.06C303.818 681.533 303.081 682.79 301.694 683.83C300.308 684.783 298.661 685.087 296.754 684.74C294.848 684.393 293.244 683.613 291.944 682.4C289.778 680.32 287.438 678.89 284.924 678.11C282.411 677.33 279.508 676.94 276.214 676.94C272.401 676.94 269.151 677.59 266.464 678.89C263.864 680.19 262.564 682.097 262.564 684.61C262.564 686.17 262.954 687.6 263.734 688.9C264.601 690.113 266.248 691.24 268.674 692.28C271.101 693.233 274.654 694.187 279.334 695.14C285.834 696.44 290.948 698.087 294.674 700.08C298.488 702.073 301.218 704.413 302.864 707.1C304.511 709.7 305.334 712.733 305.334 716.2C305.334 720.187 304.251 723.783 302.084 726.99C300.004 730.197 296.884 732.753 292.724 734.66C288.651 736.567 283.538 737.52 277.384 737.52ZM330.03 737C328.124 737 326.52 736.393 325.22 735.18C324.007 733.88 323.4 732.277 323.4 730.37V672.52C323.4 670.527 324.007 668.923 325.22 667.71C326.52 666.497 328.124 665.89 330.03 665.89C332.024 665.89 333.627 666.497 334.84 667.71C336.054 668.923 336.66 670.527 336.66 672.52V730.37C336.66 732.277 336.054 733.88 334.84 735.18C333.627 736.393 332.024 737 330.03 737ZM330.03 654.32C327.69 654.32 325.654 653.497 323.92 651.85C322.274 650.117 321.45 648.08 321.45 645.74C321.45 643.4 322.274 641.407 323.92 639.76C325.654 638.027 327.69 637.16 330.03 637.16C332.37 637.16 334.364 638.027 336.01 639.76C337.744 641.407 338.61 643.4 338.61 645.74C338.61 648.08 337.744 650.117 336.01 651.85C334.364 653.497 332.37 654.32 330.03 654.32ZM393.569 737.52C386.549 737.52 380.352 736.003 374.979 732.97C369.606 729.85 365.359 725.603 362.239 720.23C359.206 714.77 357.689 708.53 357.689 701.51C357.689 694.403 359.206 688.163 362.239 682.79C365.359 677.33 369.606 673.083 374.979 670.05C380.352 666.93 386.549 665.37 393.569 665.37C400.502 665.37 406.656 666.93 412.029 670.05C417.402 673.083 421.606 677.33 424.639 682.79C427.759 688.163 429.319 694.403 429.319 701.51C429.319 708.53 427.802 714.77 424.769 720.23C421.736 725.603 417.532 729.85 412.159 732.97C406.786 736.003 400.589 737.52 393.569 737.52ZM393.569 725.82C398.076 725.82 402.062 724.78 405.529 722.7C408.996 720.62 411.682 717.76 413.589 714.12C415.582 710.48 416.579 706.277 416.579 701.51C416.579 696.743 415.582 692.54 413.589 688.9C411.682 685.173 408.996 682.27 405.529 680.19C402.062 678.11 398.076 677.07 393.569 677.07C389.062 677.07 385.076 678.11 381.609 680.19C378.142 682.27 375.412 685.173 373.419 688.9C371.426 692.54 370.429 696.743 370.429 701.51C370.429 706.277 371.426 710.48 373.419 714.12C375.412 717.76 378.142 720.62 381.609 722.7C385.076 724.78 389.062 725.82 393.569 725.82ZM542.394 737.13C540.487 737.13 538.884 736.523 537.584 735.31C536.37 734.01 535.764 732.407 535.764 730.5V693.32C535.764 687.86 534.42 683.83 531.734 681.23C529.047 678.543 525.537 677.2 521.204 677.2C516.697 677.2 512.97 678.76 510.024 681.88C507.164 685 505.734 688.987 505.734 693.84H494.944C494.944 688.207 496.157 683.267 498.584 679.02C501.01 674.687 504.39 671.307 508.724 668.88C513.144 666.453 518.17 665.24 523.804 665.24C528.744 665.24 533.12 666.323 536.934 668.49C540.747 670.657 543.694 673.863 545.774 678.11C547.94 682.27 549.024 687.34 549.024 693.32V730.5C549.024 732.407 548.417 734.01 547.204 735.31C545.99 736.523 544.387 737.13 542.394 737.13ZM455.684 737.13C453.777 737.13 452.174 736.523 450.874 735.31C449.66 734.01 449.054 732.407 449.054 730.5V672.65C449.054 670.657 449.66 669.053 450.874 667.84C452.174 666.627 453.777 666.02 455.684 666.02C457.677 666.02 459.28 666.627 460.494 667.84C461.707 669.053 462.314 670.657 462.314 672.65V730.5C462.314 732.407 461.707 734.01 460.494 735.31C459.28 736.523 457.677 737.13 455.684 737.13ZM499.104 737.13C497.197 737.13 495.594 736.523 494.294 735.31C493.08 734.01 492.474 732.407 492.474 730.5V693.32C492.474 687.86 491.13 683.83 488.444 681.23C485.757 678.543 482.247 677.2 477.914 677.2C473.407 677.2 469.68 678.76 466.734 681.88C463.787 685 462.314 688.987 462.314 693.84H454.124C454.124 688.207 455.25 683.267 457.504 679.02C459.757 674.687 462.877 671.307 466.864 668.88C470.85 666.453 475.4 665.24 480.514 665.24C485.454 665.24 489.83 666.323 493.644 668.49C497.457 670.657 500.404 673.863 502.484 678.11C504.65 682.27 505.734 687.34 505.734 693.32V730.5C505.734 732.407 505.127 734.01 503.914 735.31C502.7 736.523 501.097 737.13 499.104 737.13ZM603.295 737.52C596.275 737.52 590.079 736.003 584.705 732.97C579.332 729.85 575.085 725.603 571.965 720.23C568.932 714.77 567.415 708.53 567.415 701.51C567.415 694.403 568.932 688.163 571.965 682.79C575.085 677.33 579.332 673.083 584.705 670.05C590.079 666.93 596.275 665.37 603.295 665.37C610.229 665.37 616.382 666.93 621.755 670.05C627.129 673.083 631.332 677.33 634.365 682.79C637.485 688.163 639.045 694.403 639.045 701.51C639.045 708.53 637.529 714.77 634.495 720.23C631.462 725.603 627.259 729.85 621.885 732.97C616.512 736.003 610.315 737.52 603.295 737.52ZM603.295 725.82C607.802 725.82 611.789 724.78 615.255 722.7C618.722 720.62 621.409 717.76 623.315 714.12C625.309 710.48 626.305 706.277 626.305 701.51C626.305 696.743 625.309 692.54 623.315 688.9C621.409 685.173 618.722 682.27 615.255 680.19C611.789 678.11 607.802 677.07 603.295 677.07C598.789 677.07 594.802 678.11 591.335 680.19C587.869 682.27 585.139 685.173 583.145 688.9C581.152 692.54 580.155 696.743 580.155 701.51C580.155 706.277 581.152 710.48 583.145 714.12C585.139 717.76 587.869 720.62 591.335 722.7C594.802 724.78 598.789 725.82 603.295 725.82ZM694.53 737.52C687.77 737.52 681.703 735.96 676.33 732.84C670.957 729.633 666.71 725.3 663.59 719.84C660.47 714.38 658.867 708.227 658.78 701.38V642.1C658.78 640.107 659.387 638.503 660.6 637.29C661.9 636.077 663.503 635.47 665.41 635.47C667.403 635.47 669.007 636.077 670.22 637.29C671.433 638.503 672.04 640.107 672.04 642.1V677.2C675.073 673.56 678.713 670.7 682.96 668.62C687.293 666.453 692.017 665.37 697.13 665.37C703.457 665.37 709.133 666.973 714.16 670.18C719.187 673.3 723.13 677.59 725.99 683.05C728.937 688.423 730.41 694.533 730.41 701.38C730.41 708.227 728.807 714.38 725.6 719.84C722.48 725.3 718.233 729.633 712.86 732.84C707.487 735.96 701.377 737.52 694.53 737.52ZM694.53 725.82C698.95 725.82 702.893 724.78 706.36 722.7C709.827 720.533 712.557 717.587 714.55 713.86C716.63 710.133 717.67 705.973 717.67 701.38C717.67 696.7 716.63 692.54 714.55 688.9C712.557 685.26 709.827 682.4 706.36 680.32C702.893 678.153 698.95 677.07 694.53 677.07C690.197 677.07 686.253 678.153 682.7 680.32C679.233 682.4 676.503 685.26 674.51 688.9C672.517 692.54 671.52 696.7 671.52 701.38C671.52 705.973 672.517 710.133 674.51 713.86C676.503 717.587 679.233 720.533 682.7 722.7C686.253 724.78 690.197 725.82 694.53 725.82ZM758.116 737C756.21 737 754.606 736.393 753.306 735.18C752.093 733.88 751.486 732.277 751.486 730.37V672.52C751.486 670.527 752.093 668.923 753.306 667.71C754.606 666.497 756.21 665.89 758.116 665.89C760.11 665.89 761.713 666.497 762.926 667.71C764.14 668.923 764.746 670.527 764.746 672.52V730.37C764.746 732.277 764.14 733.88 762.926 735.18C761.713 736.393 760.11 737 758.116 737ZM758.116 654.32C755.776 654.32 753.74 653.497 752.006 651.85C750.36 650.117 749.536 648.08 749.536 645.74C749.536 643.4 750.36 641.407 752.006 639.76C753.74 638.027 755.776 637.16 758.116 637.16C760.456 637.16 762.45 638.027 764.096 639.76C765.83 641.407 766.696 643.4 766.696 645.74C766.696 648.08 765.83 650.117 764.096 651.85C762.45 653.497 760.456 654.32 758.116 654.32ZM806.315 737C802.502 737 799.122 735.96 796.175 733.88C793.228 731.8 790.932 728.983 789.285 725.43C787.638 721.79 786.815 717.63 786.815 712.95V641.97C786.815 640.063 787.422 638.503 788.635 637.29C789.848 636.077 791.408 635.47 793.315 635.47C795.222 635.47 796.782 636.077 797.995 637.29C799.208 638.503 799.815 640.063 799.815 641.97V712.95C799.815 716.157 800.422 718.8 801.635 720.88C802.848 722.96 804.408 724 806.315 724H809.565C811.298 724 812.685 724.607 813.725 725.82C814.852 727.033 815.415 728.593 815.415 730.5C815.415 732.407 814.592 733.967 812.945 735.18C811.298 736.393 809.175 737 806.575 737H806.315ZM857.864 737.52C850.671 737.52 844.257 736.003 838.624 732.97C833.077 729.85 828.701 725.603 825.494 720.23C822.374 714.77 820.814 708.53 820.814 701.51C820.814 694.403 822.287 688.163 825.234 682.79C828.267 677.33 832.427 673.083 837.714 670.05C843.001 666.93 849.067 665.37 855.914 665.37C862.674 665.37 868.481 666.887 873.334 669.92C878.187 672.867 881.871 676.983 884.384 682.27C886.984 687.47 888.284 693.493 888.284 700.34C888.284 701.987 887.721 703.373 886.594 704.5C885.467 705.54 884.037 706.06 882.304 706.06H829.914V695.66H881.914L876.584 699.3C876.497 694.967 875.631 691.11 873.984 687.73C872.337 684.263 869.997 681.533 866.964 679.54C863.931 677.547 860.247 676.55 855.914 676.55C850.974 676.55 846.727 677.633 843.174 679.8C839.707 681.967 837.064 684.957 835.244 688.77C833.424 692.497 832.514 696.743 832.514 701.51C832.514 706.277 833.597 710.523 835.764 714.25C837.931 717.977 840.921 720.923 844.734 723.09C848.547 725.257 852.924 726.34 857.864 726.34C860.551 726.34 863.281 725.863 866.054 724.91C868.914 723.87 871.211 722.7 872.944 721.4C874.244 720.447 875.631 719.97 877.104 719.97C878.664 719.883 880.007 720.317 881.134 721.27C882.607 722.57 883.387 724 883.474 725.56C883.561 727.12 882.867 728.463 881.394 729.59C878.447 731.93 874.764 733.837 870.344 735.31C866.011 736.783 861.851 737.52 857.864 737.52Z" fill="#4C7F9E"/>
</svg>
